<svg xmlns="http://www.w3.org/2000/svg" xmlns:xlink="http://www.w3.org/1999/xlink" id="Layer_1" x="0px" y="0px" viewBox="0 0 500 500" style="enable-background:new 0 0 500 500;" xml:space="preserve"><g>	<path d="M323.51,206.26c-0.84,5.1-1.54,9.73-2.37,14.33c-7.11,39.51-14.3,79.01-21.27,118.55c-0.38,2.18,0.29,5.08,1.53,6.94  c9.51,14.28,19.26,28.39,28.97,42.53c3.15,4.59,5.26,4.58,8.42-0.02c9.63-14.03,19.32-28.01,28.72-42.19  c1.37-2.07,2.09-5.28,1.66-7.71c-7.35-41.74-14.92-83.43-22.43-125.14c-0.39-2.17-0.64-4.37-1.08-7.46  c3.35,0.49,6.3,0.76,9.16,1.38c41.43,9,72.64,46.23,73.27,88.6c0.57,38.5,0.13,77.01,0.23,115.51c0.01,2.64-1.16,4-3.18,5.32  c-14.45,9.38-30.39,14.5-47.37,16.48c-31.35,3.66-61.49-2.07-90.61-13.14c-14.8-5.63-28.91-13.09-43.35-19.68  c-2.18-0.99-3-2.45-2.99-4.89c0.09-33.34-0.35-66.69,0.2-100.02c0.73-43.75,34.86-82.21,78.24-89.13  C320.45,206.32,321.66,206.36,323.51,206.26z"></path>	<path d="M478.55,371.68c0.11,0.75,0.39,1.51,0.32,2.24c-3.64,36.29-17.65,66.97-48.54,88.18c-20.26,13.91-43.22,19.66-67.47,20.84  c-29.54,1.44-58.06-4.03-85.81-13.65c-63.77-22.12-116.8-60.46-162.72-109.16c-33.08-35.09-60.09-74.36-79.06-118.88  c-13.34-31.32-22.08-63.78-22.3-98.05c-0.19-28.92,5.69-56.31,23.04-80.23c17.04-23.49,40.54-36.94,68.54-43  c6.47-1.4,13.09-2.11,19.65-3.14c0.19,0.54,0.38,1.08,0.57,1.62c-1.55,0.74-3.05,1.59-4.65,2.19  C90.58,31.91,69.3,51.89,57.04,81.08c-10.08,23.99-12.01,49.16-9.2,74.77c5.34,48.61,24.8,91.81,51.98,131.73  c36.31,53.34,82.52,96.15,139.17,127.33c29.42,16.19,60.51,27.93,93.93,32.54c30.96,4.28,61.31,2.5,89.81-11.9  c25.3-12.78,42.57-32.84,52.67-59.22c0.64-1.67,1.48-3.27,2.22-4.91C477.93,371.5,478.24,371.59,478.55,371.68z"></path>	<path d="M158.86,182.9c-1.53,8.68-2.89,16.61-4.32,24.52c-4.28,23.74-8.62,47.47-12.78,71.23c-0.3,1.7,0.25,3.96,1.23,5.42  c7.59,11.37,15.35,22.63,23.11,33.88c2.72,3.93,4.99,3.96,7.69,0.06c7.69-11.13,15.39-22.26,22.83-33.56  c1.16-1.75,1.66-4.51,1.3-6.6c-4.63-26.65-9.47-53.26-14.25-79.89c-0.85-4.76-1.63-9.53-2.56-14.94c2.2,0.26,3.84,0.24,5.36,0.65  c28.92,7.83,47.26,26.2,54.68,55.26c0.46,1.79,0.15,4.24-0.76,5.84c-9.97,17.52-14.62,36.32-14.51,56.45  c0.15,27.49,0.04,54.98,0.03,82.46c0,1.6-0.14,3.2-0.24,5.41c-1.63-0.75-2.66-1.07-3.52-1.64  c-51.17-33.96-92.67-77.12-123.67-130.22c-0.99-1.69-1.54-3.94-1.47-5.9c1.03-32.12,25.62-61.23,57.22-67.87  C155.44,183.19,156.69,183.15,158.86,182.9z"></path>	<path d="M284.33,139.83c0.04-27.85,22.47-50.22,50.32-50.18c27.76,0.03,50.31,22.62,50.27,50.33  c-0.05,27.62-22.93,50.46-50.41,50.3C306.71,190.12,284.29,167.58,284.33,139.83z"></path>	<path d="M170,166.59c-21.43,0-38.58-17.12-38.58-38.51c0.01-21.31,17.37-38.57,38.68-38.44c21.27,0.13,38.27,17.14,38.32,38.34  C208.47,149.46,191.42,166.58,170,166.59z"></path></g></svg>