<svg xmlns="http://www.w3.org/2000/svg" xmlns:xlink="http://www.w3.org/1999/xlink" id="Layer_1" x="0px" y="0px" viewBox="0 0 500 500" style="enable-background:new 0 0 500 500;" xml:space="preserve"><g>	<path d="M360.81,149.72c-15.43-5.33-69.62-33.87-134.35,0.67c-2.27,1.21-4.97,1.61-7.28,2.77c-2.75,1.38-5.54,2.87-7.85,4.86  c-3.07,2.65-5.47,6.09-8.55,8.74c-12.67,10.89-23.21,23.51-31.23,38.15c-1.49,2.72-3.09,3.56-6.13,3.53  c-17.52-0.17-35.04-0.1-52.56-0.08c-10.33,0.02-15.9,5.58-15.92,15.91c-0.03,17.19-0.03,34.38,0,51.57  c0.02,10.29,5.59,15.77,16.04,15.8c14.03,0.03,28.06,0.01,41.91,0.01c2.28,9.39,4.44,18.32,6.74,27.81c-1.72,0-3.31,0-4.9,0  c-14.88,0-29.75-0.04-44.63,0.02c-9.37,0.04-15.12,5.8-15.15,15.17c-0.06,17.69-0.06,35.37,0,53.06  c0.03,9.13,5.76,14.98,14.8,15.02c17.85,0.09,35.71,0.08,53.56,0c9.1-0.04,14.83-5.8,14.9-14.92c0.08-10.87,0.02-21.73,0.02-33.77  c3.31,3.92,5.72,7.17,8.54,10.01c5.59,5.62,11.32,11.09,17.17,16.43c1.94,1.77,3.12,2.98,2.45,6.11  c-1.72,8.03,4.53,16.35,12.81,15.93c15.75-0.79,30.69,2.58,45.84,6.04c21.87,4.99,43.69,3.05,65.19-2.96  c1.27-0.36,2.55-0.69,3.83-0.98c0.29-0.06,0.63,0.12,1.44,0.31c3.24,12.33,11.11,21.94,20.32,30.72c1.18,1.12,1.71,3.89,1.29,5.58  c-4.25,17.39-20.07,30.13-38.05,30.93c-1.65,0.07-3.31,0.06-4.96,0.06c-76.53,0-153.07,0.01-229.6,0  c-27.87,0-45.16-17.31-45.16-45.19c0-118.02,0-236.05,0-354.07c0-27.89,17.29-45.19,45.16-45.19c76.37-0.01,152.74-0.01,229.11,0  c27.93,0,45.19,17.24,45.2,45.15C360.81,98.7,360.81,124.48,360.81,149.72z M96.93,138.65c0,8.93-0.05,17.85,0.01,26.78  c0.07,9.36,5.79,15.06,15.23,15.09c17.69,0.06,35.38,0.07,53.06-0.01c9.13-0.04,14.92-5.77,14.96-14.85  c0.08-17.85,0.08-35.71,0-53.56c-0.04-9.07-5.85-14.81-14.97-14.84c-17.69-0.07-35.38-0.06-53.06,0  c-9.4,0.03-15.15,5.76-15.22,15.11C96.88,121.13,96.93,129.89,96.93,138.65z M256.38,124.99c11.07,0,22.15,0.03,33.22-0.01  c9.18-0.03,15.51-5.65,15.6-13.73c0.09-8.08-6.29-13.97-15.34-13.99c-22.15-0.04-44.3-0.04-66.45,0  c-9.07,0.02-15.43,5.88-15.36,13.97c0.08,8.06,6.43,13.71,15.59,13.75C234.56,125.02,245.47,124.99,256.38,124.99z"></path>	<path d="M371.09,370.31c-3.45-3.28-6.78-6.43-10.12-9.59c-52.95,39.7-121.56,24.4-155.62-19.81  c-34.66-44.99-30.63-108.31,9.2-147.48c40.36-39.7,104.06-43.02,147.98-7.77c44.24,35.5,57.31,102.98,18.58,154.87  c3.18,3.26,6.38,6.53,9.74,9.98c1.06-0.69,2.02-1.25,2.91-1.9c11.45-8.33,25.62-8.02,35.88,1.82  c15.37,14.76,30.64,29.68,45.16,45.28c15.33,16.46,14.23,41.87-1.47,57.39c-15.62,15.44-40.66,16.47-57.02,1.26  c-15.73-14.61-30.78-29.99-45.61-45.53C360.57,398.21,360.99,385.23,371.09,370.31z M282.23,276.62  c-5.27-5.51-9.77-10.59-14.68-15.23c-5.5-5.21-14.12-4.94-19.27,0.2c-5.09,5.07-5.31,13.89-0.09,19.28  c8.27,8.54,16.69,16.94,25.23,25.22c5.44,5.28,14.03,5.31,19.22-0.13c15.17-15.88,30.24-31.86,45.14-48  c5.69-6.16,5.15-13.99-0.68-19.44c-5.63-5.27-13.72-5.07-19.56,0.67c-3.3,3.24-6.35,6.72-9.52,10.09  C299.67,258.14,291.31,267,282.23,276.62z"></path>	<path d="M152.18,263.81c-9.25,0-17.98,0-27.11,0c0-9.06,0-18.04,0-27.36c8.86,0,17.83,0,27.11,0  C152.18,245.44,152.18,254.41,152.18,263.81z"></path>	<path d="M152.14,374.77c-9.26,0-18.12,0-27.22,0c0-9.09,0-17.95,0-27.19c8.93,0,17.91,0,27.22,0  C152.14,356.47,152.14,365.45,152.14,374.77z"></path>	<path d="M124.88,152.54c0-9.16,0-18.01,0-27.21c9.05,0,18.02,0,27.3,0c0,9.01,0,17.98,0,27.21  C143.16,152.54,134.31,152.54,124.88,152.54z"></path></g></svg>