<svg xmlns="http://www.w3.org/2000/svg" xmlns:xlink="http://www.w3.org/1999/xlink" id="Layer_1" x="0px" y="0px" viewBox="0 0 500 500" style="enable-background:new 0 0 500 500;" xml:space="preserve"><g>	<path d="M378.18,253.01c-3.15-1.16-5.65-1.85-7.94-2.97c-7.17-3.53-14.23-7.27-21.39-10.83c-4.74-2.35-11.76,0.6-13.4,5.57  c-2.51,7.59-4.93,15.2-7.43,22.78c-2.49,7.53-5.78,10.02-13.8,10.15c-7.47,0.12-14.95,0.1-22.42,0.01  c-8.22-0.1-11.67-2.63-14.25-10.34c-2.53-7.58-4.91-15.2-7.45-22.78c-1.62-4.84-8.42-7.74-13.03-5.47  c-7.17,3.53-14.26,7.22-21.36,10.87c-7.22,3.71-11.54,3.11-17.35-2.62c-5.33-5.24-10.62-10.52-15.85-15.85  c-5.58-5.68-6.22-9.86-2.7-16.87c3.67-7.3,7.42-14.55,11.02-21.88c2.2-4.48-0.78-11.42-5.54-13c-7.58-2.52-15.2-4.91-22.79-7.41  c-7.43-2.44-10.14-6-10.25-13.77c-0.11-7.65-0.11-15.3,0-22.94c0.11-7.93,2.7-11.34,10.17-13.78c7.43-2.43,14.86-4.84,22.29-7.25  c5.71-1.86,8.5-8.54,5.77-14.03c-3.56-7.16-7.21-14.26-10.79-21.41c-3.28-6.54-2.72-10.81,2.35-16.06  c5.56-5.74,11.23-11.39,16.92-17c4.8-4.73,9.55-5.54,15.68-2.52c7.17,3.53,14.22,7.3,21.34,10.93c5.91,3.01,12.4,0.41,14.45-5.79  c2.51-7.58,4.89-15.21,7.47-22.77c2.31-6.78,6.13-9.53,13.17-9.59c7.65-0.07,15.3-0.04,22.94-0.01  c7.99,0.04,11.56,2.69,14.11,10.45c2.44,7.42,4.82,14.87,7.25,22.29c1.76,5.38,8.67,8.3,13.75,5.74  c7.14-3.59,14.2-7.33,21.34-10.92c6.88-3.46,11.27-2.73,16.9,2.81c5.45,5.36,10.86,10.76,16.24,16.21  c4.88,4.94,5.72,9.78,2.59,16.15c-3.52,7.17-7.27,14.23-10.94,21.33c-2.77,5.37-0.04,12.23,5.63,14.1  c7.59,2.49,15.19,4.95,22.78,7.45c6.95,2.3,9.88,6.22,9.94,13.47c0.06,7.82,0.07,15.64,0,23.46c-0.07,6.95-2.97,10.93-9.63,13.17  c-7.73,2.61-15.52,5.06-23.26,7.64c-5.5,1.83-8.19,8.59-5.54,13.78c3.56,6.96,7.22,13.87,10.7,20.87  c3.56,7.16,2.72,11.86-2.84,17.4c-5.54,5.52-10.92,11.21-16.7,16.47C384.02,250.36,380.85,251.5,378.18,253.01z M302.43,207.43  c33.24,0.24,60.58-26.7,60.8-59.9c0.23-33.21-26.79-60.66-59.91-60.89c-33.21-0.22-60.56,26.78-60.75,60  C242.37,180.01,269.13,207.19,302.43,207.43z"></path>	<path d="M171.75,420.35c-20.36-35.25-40.39-69.95-60.76-105.23c14.35-8.02,28.25-16.16,42.52-23.59  c6.57-3.42,14.08-3.78,21.42-2.31c34.21,6.87,68.41,13.79,102.61,20.73c12.42,2.52,24.91,4.77,37.22,7.74  c19.36,4.67,26.08,28.07,12.27,42.41c-6.63,6.88-14.92,9.19-24.33,7.26c-27.38-5.61-54.76-11.23-82.15-16.81  c-3.79-0.77-7.73-1.7-9.99,2.87c-2.46,4.99-0.32,9.22,5.41,10.4c21.93,4.53,43.88,8.98,65.82,13.45c5.96,1.21,11.93,2.34,17.88,3.6  c26.62,5.66,50.33-14.78,48.21-41.9c-0.32-4.14,0.93-6.18,4.2-8.32c24.71-16.17,49.3-32.52,73.93-48.81  c7.62-5.04,15.74-6.32,24.27-2.73c8.82,3.72,14.38,10.3,15.68,19.88c1.4,10.36-2.17,18.93-10.76,24.94  c-11.81,8.27-23.84,16.22-35.78,24.3c-38.54,26.1-77.26,51.96-115.55,78.43c-15.57,10.76-31.11,13.08-48.55,5.32  c-13.15-5.85-26.8-10.57-40.17-15.96C200.22,410.02,185.96,410.85,171.75,420.35z"></path>	<path d="M76.39,295.71c6.06,0.13,8.93,2.75,11.17,6.65c11.16,19.42,22.42,38.78,33.63,58.17c16.42,28.41,32.81,56.84,49.25,85.24  c5.02,8.67,3.67,13.85-5.08,18.88c-9.64,5.53-19.23,11.14-28.92,16.58c-7.59,4.26-12.56,2.93-16.93-4.63  c-23.41-40.41-46.76-80.87-70.13-121.3c-4.43-7.67-8.94-15.29-13.3-23c-4.17-7.38-2.77-12.71,4.58-17.06  c9.86-5.83,19.79-11.55,29.78-17.18C72.63,296.83,75.17,296.18,76.39,295.71z"></path>	<path d="M294.78,157.5c10.45-10.55,20.95-21.16,31.46-31.76c1.47-1.48,2.92-2.98,4.45-4.4c4.16-3.85,8.27-4.22,11.49-1.08  c3.39,3.31,3.11,7.6-1.04,11.9c-4.95,5.12-10.04,10.1-15.08,15.13c-8.23,8.23-16.41,16.5-24.69,24.68  c-5.63,5.55-8.91,5.52-14.58-0.07c-7.42-7.32-14.77-14.71-22.11-22.11c-4.06-4.1-4.53-8.71-1.34-11.91  c3.27-3.29,7.87-2.9,11.95,1.12c6.06,5.96,12.08,11.98,18.12,17.97C293.53,157.07,293.73,157.09,294.78,157.5z"></path></g></svg>