<svg xmlns="http://www.w3.org/2000/svg" xmlns:xlink="http://www.w3.org/1999/xlink" id="Layer_1" x="0px" y="0px" viewBox="0 0 150 150" style="enable-background:new 0 0 150 150;" xml:space="preserve"><style type="text/css">	.st0{fill:#FFFFFF;}</style><g>	<path class="st0" d="M104.06,123.4c-3.72,0-6.99,0-10.54,0c0,6.95,0,13.82,0,20.85c-12.38,0-24.48,0-36.87,0  c0-6.85,0-13.72,0-20.76c-3.66,0-7.03,0-10.62,0c0,6.91,0,13.73,0,20.73c-6.2,0-12.18,0-18.33,0c-0.07-0.53-0.19-1.09-0.2-1.65  c-0.01-5.66-0.1-11.32,0.02-16.98c0.25-11.83,7.57-21.71,18.37-25.11c1.63-0.51,2.62-0.31,3.84,1  c11.57,12.38,29.1,14.84,43.33,5.98c2.81-1.74,5.21-4.18,7.64-6.46c0.9-0.84,1.61-1.05,2.74-0.73  c10.5,2.93,18.54,12.81,18.94,23.74c0.24,6.68,0.04,13.38,0.04,20.24c-6.09,0-12.07,0-18.36,0  C104.06,137.35,104.06,130.48,104.06,123.4z"></path>	<path class="st0" d="M51.26,78.34c0.03-13.07,10.69-23.69,23.75-23.68C88.18,54.67,98.8,65.4,98.73,78.6  c-0.07,13.07-10.78,23.64-23.87,23.55C61.75,102.06,51.23,91.45,51.26,78.34z"></path>	<path class="st0" d="M80.32,23.92c0,7.49,0,14.97,0,22.65c-3.55,0-6.92,0-10.57,0c0-7.59,0-15.12,0-23.25  c-2.72,2.06-4.98,3.78-7.36,5.59c-2.16-2.79-4.2-5.41-6.45-8.3C62.32,15.63,68.62,10.72,75,5.75c6.36,4.95,12.62,9.82,19.06,14.83  c-2.2,2.84-4.26,5.52-6.45,8.35c-2.36-1.82-4.58-3.52-6.79-5.22C80.65,23.78,80.49,23.85,80.32,23.92z"></path>	<path class="st0" d="M103.2,60.32c-2.58-2.58-4.99-4.99-7.75-7.75c5.34-5.22,10.75-10.51,16.49-16.12  c-3.12-0.4-5.87-0.76-8.95-1.16c0.42-3.46,0.83-6.81,1.28-10.45c8.07,0.98,15.93,1.94,23.99,2.92c0.98,8,1.95,15.87,2.94,24  c-3.5,0.44-6.86,0.86-10.42,1.31c-0.39-2.95-0.75-5.73-1.2-9.09C113.92,49.64,108.54,55,103.2,60.32z"></path>	<path class="st0" d="M47.03,35.3c-3.09,0.4-5.79,0.76-9.08,1.19c5.68,5.71,11.04,11.09,16.38,16.46c-2.51,2.5-4.92,4.9-7.72,7.69  c-5.23-5.41-10.53-10.88-16.2-16.74c-0.44,3.4-0.81,6.23-1.19,9.18c-3.55-0.45-6.85-0.86-10.43-1.31  c0.98-8.05,1.95-15.97,2.93-23.96c8.04-0.99,15.85-1.94,23.97-2.94C46.14,28.37,46.57,31.7,47.03,35.3z"></path></g></svg>