<svg xmlns="http://www.w3.org/2000/svg" xmlns:xlink="http://www.w3.org/1999/xlink" id="Layer_1" x="0px" y="0px" viewBox="0 0 150 150" style="enable-background:new 0 0 150 150;" xml:space="preserve"><style type="text/css">	.st0{fill:#FFFFFF;}</style><g>	<path class="st0" d="M81.37,81.33c0.89,2.71,1.5,5.42,2.63,7.89c5.15,11.28,14.02,17.58,26.32,18.92c1.51,0.17,2.14,0.67,2.54,2  c1.1,3.59,2.31,7.15,3.43,10.74c2.4,7.68-2.95,15.23-11,15.25c-30.29,0.06-60.59,0.06-90.88,0c-8.07-0.01-13.47-7.51-11.05-15.17  c3.07-9.72,6.18-19.44,9.35-29.13c3.36-10.29,13.23-15.08,23.4-11.37C51.07,85.92,66.12,85.91,81.37,81.33z"></path>	<path class="st0" d="M59.71,73.47C43.2,73.45,29.86,60.13,29.86,43.68c0-16.54,13.45-29.88,30.07-29.84  c16.53,0.04,29.84,13.36,29.84,29.85C89.76,60.27,76.42,73.5,59.71,73.47z"></path>	<path class="st0" d="M134.88,91.15c2.16,2.11,4.38,4.28,6.59,6.45c1.34,1.32,2.69,2.63,3.99,3.99c2.27,2.38,2.34,5.44,0.21,7.55  c-2.09,2.07-5.24,2.01-7.55-0.3c-3.52-3.53-6.95-7.15-10.33-10.65c-14.13,8.47-28.48,3.47-35.66-6.27  c-7.43-10.07-6.45-24.14,2.33-33.26c8.72-9.06,22.98-10.46,33.37-3.39C137.24,61.68,143.66,76.06,134.88,91.15z M113.25,92.23  c8.56-0.04,15.62-7.18,15.53-15.71c-0.09-8.58-7.16-15.47-15.8-15.41c-8.66,0.06-15.53,7.04-15.47,15.69  C97.56,85.42,104.55,92.26,113.25,92.23z"></path></g></svg>