<svg xmlns="http://www.w3.org/2000/svg" xmlns:xlink="http://www.w3.org/1999/xlink" id="Layer_1" x="0px" y="0px" viewBox="0 0 150 150" style="enable-background:new 0 0 150 150;" xml:space="preserve"><style type="text/css">	.st0{fill:#FFFFFF;}</style><g>	<path class="st0" d="M28.56,130.77c0-15.55,0-30.91,0-46.35c0.29-0.04,0.55-0.12,0.8-0.12c5.81-0.01,11.61,0,17.42-0.01  c1.59,0,2.87,0.62,3.97,1.74c2.13,2.17,4.34,4.26,6.43,6.47c0.8,0.85,1.63,1.11,2.76,1.1c7.24-0.04,14.49-0.05,21.73,0  c5.62,0.04,8.97,5.6,6.29,10.38c-1.37,2.44-3.57,3.54-6.32,3.54c-5.7,0.01-11.39,0-17.09,0c-0.44,0-0.89-0.02-1.33,0.02  c-1.39,0.14-2.29,1.11-2.25,2.39c0.04,1.2,0.93,2.08,2.25,2.22c0.27,0.03,0.55,0.01,0.83,0.01c5.86,0,11.72,0.02,17.58-0.01  c5.75-0.02,10.12-3.52,11.57-9.09c0.16-0.6,0.65-1.29,1.19-1.58c9.71-5.28,19.41-10.58,29.19-15.73  c7.85-4.13,16.83,1.37,16.37,9.96c-0.2,3.71-1.92,6.63-5.04,8.69c-8.16,5.4-16.32,10.8-24.47,16.21  c-6.91,4.59-13.85,9.12-20.7,13.79c-9.11,6.22-18.9,6.9-29.17,3.81c-6.45-1.94-12.88-3.98-19.28-6.09  c-3.14-1.03-6.29-1.62-9.59-1.38C30.73,130.83,29.73,130.77,28.56,130.77z"></path>	<path class="st0" d="M58.93,24.63c1.47,1.33,2.46,2.87,1.97,4.94c-0.5,2.1-2.21,3.57-4.41,3.61c-3.15,0.07-6.3,0.07-9.45,0  c-2.65-0.06-4.54-2.01-4.59-4.69c-0.05-2.93-0.03-5.86-0.01-8.79c0.02-2.66,1.39-4.48,3.72-5c2.08-0.46,3.98,0.62,5.17,2.94  c0.07,0.14,0.17,0.27,0.28,0.45c1.44-0.96,2.82-1.96,4.28-2.84C72.82,5.19,94.37,9.9,105.59,26.1  c14.63,21.13,3.46,50.82-21.46,57.06c-21.95,5.49-43.46-9.4-46.07-31.91c-0.15-1.26-0.25-2.53-0.26-3.8  c-0.02-2.83,1.87-4.88,4.49-4.96c2.67-0.08,4.71,1.96,4.79,4.85c0.21,8.1,3.13,15.04,9.21,20.4c8.3,7.32,17.95,9.29,28.28,5.46  c10.25-3.8,16.42-11.45,17.91-22.37c2.37-17.39-11.44-32.33-28.97-31.53c-4.72,0.22-9.12,1.63-13.16,4.1  c-0.38,0.23-0.73,0.5-1.08,0.77C59.16,24.28,59.09,24.43,58.93,24.63z"></path>	<path class="st0" d="M72.35,51.78c-8.37-2.1-12.04-9.38-11.22-15.58c0.96-7.25,6.87-12.36,13.99-12.3  c7.09,0.07,13.01,5.44,13.71,12.61c0.65,6.66-3.56,13.39-11.23,15.26c2.25,0,4.5-0.04,6.75,0.01c4.08,0.09,7.49,1.65,10.28,4.65  c0.76,0.81,0.89,1.48,0.27,2.46c-4.63,7.34-11.22,11.43-19.92,11.42c-8.7,0-15.3-4.07-19.93-11.41c-0.61-0.97-0.52-1.64,0.25-2.46  c2.74-2.94,6.09-4.53,10.11-4.65C67.71,51.73,70.03,51.78,72.35,51.78z"></path>	<path class="st0" d="M10.02,79.67c3.27,0,6.41-0.09,9.55,0.03c2.51,0.1,4.26,2.15,4.28,4.81c0.04,3.81,0.01,7.62,0.01,11.44  c0,11.27,0,22.54,0,33.81c0,3.93-1.72,5.65-5.65,5.65c-2.6,0-5.19-0.01-7.79-0.02c-0.1,0-0.2-0.06-0.41-0.12  C10.02,116.82,10.02,98.34,10.02,79.67z"></path></g></svg>